# xmcd
#
# Track frame offsets: 
#        150
#        17437
#        32080
#        45725
#        75908
#        96203
#        113475
#        133272
#        147889
#        178718
#        200427
#        214637
#        232030
#        244674
#        267275
#
# Disc length: 3887 seconds
#
# Revision: 0
# Processed by: cddbd v1.5.2PL0 Copyright (c) Steve Scherf et al.
# Submitted via: ExactAudioCopy v0.99pb4
#
DISCID=c50f2d0f
DTITLE=Cross Canadian Ragweed - Live and Loud at Billy Bob's Texas
DYEAR=2002
DGENRE=Rock
TTITLE0=Long Way Home
TTITLE1=42 Miles
TTITLE2=Hey Hey
TTITLE3=On Your Own
TTITLE4=Run to Me
TTITLE5=Look at Me
TTITLE6=Time to Move On
TTITLE7=Crazy Eddie's Last Hurrah
TTITLE8=Mexican Sky
TTITLE9=President Song 
TTITLE10=Alright
TTITLE11=Johnny's Song
TTITLE12=Carney Man
TTITLE13=Boys From Oklahoma
TTITLE14=Bang My Head
EXTD=
EXTT0=
EXTT1=
EXTT2=
EXTT3=
EXTT4=
EXTT5=
EXTT6=
EXTT7=
EXTT8=
EXTT9=
EXTT10=
EXTT11=
EXTT12=
EXTT13=
EXTT14=
PLAYORDER=
